<svg xmlns="http://www.w3.org/2000/svg" width="43.067" height="68" viewBox="0 0 43.067 68">
  <g id="hourglass" transform="translate(-93.867)">
    <g id="Group_536" data-name="Group 536" transform="translate(93.867)">
      <g id="Group_535" data-name="Group 535">
        <path id="Path_100" data-name="Path 100" d="M133.534,0H97.267a3.184,3.184,0,0,0-3.4,2.9,3.184,3.184,0,0,0,3.4,2.9h36.267a3.184,3.184,0,0,0,3.4-2.9A3.184,3.184,0,0,0,133.534,0Zm0,3.867H97.267A1.061,1.061,0,0,1,96.134,2.9a1.061,1.061,0,0,1,1.133-.967h36.267a1.061,1.061,0,0,1,1.133.967A1.061,1.061,0,0,1,133.534,3.867Z" transform="translate(-93.867)" fill="#3c4144"/>
      </g>
    </g>
    <g id="Group_538" data-name="Group 538" transform="translate(93.867 62.2)">
      <g id="Group_537" data-name="Group 537">
        <path id="Path_101" data-name="Path 101" d="M133.534,460.8H97.267a2.937,2.937,0,1,0,0,5.8h36.267a2.937,2.937,0,1,0,0-5.8Zm0,3.867H97.267a.979.979,0,1,1,0-1.933h36.267a.979.979,0,1,1,0,1.933Z" transform="translate(-93.867 -460.8)" fill="#3c4144"/>
      </g>
    </g>
    <g id="Group_540" data-name="Group 540" transform="translate(97.734 3.867)">
      <g id="Group_539" data-name="Group 539">
        <path id="Path_102" data-name="Path 102" d="M154.06,59.965a30.7,30.7,0,0,0,9.274-22.031V35.293a1.168,1.168,0,0,0-1.178-1.159H129.178A1.168,1.168,0,0,0,128,35.293v2.641a30.706,30.706,0,0,0,9.273,22.031l1.184,1.165a4.386,4.386,0,0,1,0,6.275l-1.184,1.165A30.7,30.7,0,0,0,128,90.6v2.641a1.168,1.168,0,0,0,1.178,1.159h32.978a1.168,1.168,0,0,0,1.178-1.159V90.6a30.7,30.7,0,0,0-9.274-22.031L152.876,67.4a4.388,4.388,0,0,1,0-6.275Zm-2.849-.474a6.679,6.679,0,0,0,0,9.552l1.184,1.165A28.421,28.421,0,0,1,160.978,90.6v1.482H130.356V90.6a28.423,28.423,0,0,1,8.582-20.392l1.184-1.165a6.677,6.677,0,0,0,0-9.552l-1.184-1.165a28.421,28.421,0,0,1-8.584-20.392V36.452h30.622v1.482a28.42,28.42,0,0,1-8.584,20.392Z" transform="translate(-128 -34.134)" fill="#3c4144"/>
      </g>
    </g>
    <g id="Group_542" data-name="Group 542" transform="translate(107.749 16.043)">
      <g id="Group_541" data-name="Group 541">
        <path id="Path_103" data-name="Path 103" d="M203.643,117.693a1.375,1.375,0,0,0-1.4-.819c-5.023,0-7.261-1.076-8.148-1.718a4.132,4.132,0,0,0-3.8-.56,3.81,3.81,0,0,0-2.444,2.625,3.155,3.155,0,0,0-.1.531,1.021,1.021,0,0,0,.121.564,21.49,21.49,0,0,0,3.455,4.8l.97.972a7.511,7.511,0,0,1,2.217,5.351.967.967,0,0,0,1.933,0,7.517,7.517,0,0,1,2.216-5.351l.973-.973c.239-.238.55-.532.892-.853C203.019,119.915,204.07,118.771,203.643,117.693Zm-4.449,3.164c-.358.337-.684.645-.934.894l-.973.973a9.5,9.5,0,0,0-1.815,2.531,9.491,9.491,0,0,0-1.815-2.531l-.971-.972a18.54,18.54,0,0,1-2.96-4.073,1.889,1.889,0,0,1,1.208-1.261,2.2,2.2,0,0,1,2.023.3c1.231.891,3.66,1.942,8.311,2.072C200.672,119.467,199.735,120.349,199.194,120.857Z" transform="translate(-187.741 -114.362)" fill="#3c4144"/>
      </g>
    </g>
    <g id="Group_544" data-name="Group 544" transform="translate(104.831 50.6)">
      <g id="Group_543" data-name="Group 543">
        <path id="Path_104" data-name="Path 104" d="M183.832,367.025a8.378,8.378,0,0,0-2.953-5.943c-.2-.2-.4-.416-.611-.64a6.468,6.468,0,0,0-4.707-2.042h-4.593a6.47,6.47,0,0,0-4.707,2.042c-.21.224-.414.435-.61.639a8.373,8.373,0,0,0-2.953,5.945.965.965,0,0,0,.964,1.041h19.206a.967.967,0,0,0,.964-1.042Zm-19.069-.891a6.719,6.719,0,0,1,2.28-3.71c.2-.211.414-.43.63-.661a4.525,4.525,0,0,1,3.294-1.429h4.593a4.532,4.532,0,0,1,3.3,1.428c.217.234.428.451.632.663a6.729,6.729,0,0,1,2.279,3.709Z" transform="translate(-162.696 -358.4)" fill="#3c4144"/>
      </g>
    </g>
    <g id="Group_546" data-name="Group 546" transform="translate(114.399 36.547)">
      <g id="Group_545" data-name="Group 545">
        <path id="Path_105" data-name="Path 105" d="M248.178,273.067a.966.966,0,0,0-.967.967V275a.967.967,0,0,0,1.933,0v-.967A.966.966,0,0,0,248.178,273.067Z" transform="translate(-247.211 -273.067)" fill="#3c4144"/>
      </g>
    </g>
    <g id="Group_548" data-name="Group 548" transform="translate(114.399 42.258)">
      <g id="Group_547" data-name="Group 547">
        <path id="Path_106" data-name="Path 106" d="M248.178,315.733a.966.966,0,0,0-.967.967v.967a.967.967,0,1,0,1.933,0V316.7A.966.966,0,0,0,248.178,315.733Z" transform="translate(-247.211 -315.733)" fill="#3c4144"/>
      </g>
    </g>
  </g>
</svg>
